<svg width="428" height="129" viewBox="0 0 428 129" fill="none" xmlns="http://www.w3.org/2000/svg">
<g clip-path="url(#clip0_538_272)">
<path d="M450.299 93.6511C450.299 93.6511 435.872 74.7983 412.805 74.4482C412.805 74.4482 383.237 75.512 380.768 76.1652C378.298 76.8183 358.111 80.8581 348.018 97.0176L344.317 109.474L454 108.801L450.299 93.6511Z" fill="#C8B0FF"/>
<path d="M374.261 24.2998C374.261 24.2998 367.532 21.6066 371.569 16.2201C375.607 10.8336 385.7 5.44708 397.813 6.7937C409.925 8.14033 424.157 12.8535 424.776 24.2998C425.395 35.7462 418 51.2323 415.308 55.2722L397.55 54.7942L383.776 38.399L374.261 24.2998Z" fill="#182546"/>
<path d="M373.588 19.5867C372.915 28.3397 367.532 62.6787 372.242 66.7186C376.953 70.7584 382.336 69.4118 382.336 71.4318V76.1449C382.336 76.1449 376.616 76.5153 374.598 78.5352C371.906 81.2284 368.541 94.3782 376.791 98.0613C385.041 101.744 403.196 96.3443 409.925 88.9379C416.654 81.5314 420.018 75.4716 416.654 74.7983C413.289 74.125 412.616 75.4716 412.616 73.4517C412.616 71.4318 412.004 62.3555 412.98 60.4972C413.956 58.6388 418.673 55.2722 418.673 51.2324C418.673 47.1925 417.414 43.8259 413.666 43.4893C409.918 43.1526 407.233 46.5192 407.233 51.9057C407.233 57.2922 401.85 43.8259 399.831 43.1526C397.813 42.4793 387.719 42.4793 383.009 31.7063C378.298 20.9333 378.601 19.5867 375.755 19.5867H373.588Z" fill="#B1736B"/>
<path d="M350.037 65.7086L350.373 109.474H321.068L334.56 62.342L350.037 65.7086Z" fill="#C8B0FF"/>
<path d="M374.517 46.8558H374.51C373.815 46.8558 373.252 47.4196 373.252 48.1149V49.9733C373.252 50.6687 373.815 51.2324 374.51 51.2324H374.517C375.212 51.2324 375.775 50.6687 375.775 49.9733V48.1149C375.775 47.4196 375.212 46.8558 374.517 46.8558Z" fill="#182546"/>
<path d="M392.012 46.8558H392.005C391.31 46.8558 390.747 47.4196 390.747 48.1149V49.9733C390.747 50.6687 391.31 51.2324 392.005 51.2324H392.012C392.707 51.2324 393.27 50.6687 393.27 49.9733V48.1149C393.27 47.4196 392.707 46.8558 392.012 46.8558Z" fill="#182546"/>
<path d="M378.298 35.4095C378.037 35.4095 377.78 35.3487 377.546 35.2318C377.313 35.115 377.109 34.9453 376.953 34.7362C376.051 33.5983 374.55 32.3527 373.898 32.3998C373.804 32.3998 373.662 32.6288 373.635 32.6759C373.401 33.0562 373.025 33.3277 372.59 33.4307C372.155 33.5336 371.697 33.4595 371.317 33.2246C370.937 32.9898 370.666 32.6135 370.563 32.1785C370.46 31.7435 370.534 31.2854 370.769 30.9051C371.062 30.3725 371.484 29.9224 371.997 29.5964C372.51 29.2704 373.096 29.079 373.703 29.04C376.461 28.8649 379.086 32.0161 379.59 32.649C379.778 32.8991 379.892 33.1964 379.92 33.5077C379.948 33.8191 379.889 34.1321 379.749 34.4117C379.61 34.6913 379.395 34.9264 379.129 35.0908C378.863 35.2551 378.557 35.3422 378.245 35.3422L378.298 35.4095Z" fill="#182546"/>
<path d="M381.313 56.4169C380.95 56.4128 380.588 56.363 380.237 56.2687C377.707 55.6425 377.834 53.3398 377.929 51.6565C377.929 51.3334 377.929 50.9832 377.929 50.7206C377.929 48.8758 379.221 36.2512 379.274 35.7125C379.285 35.6238 379.329 35.5425 379.398 35.4859C379.467 35.4293 379.556 35.4019 379.645 35.4095C379.689 35.4137 379.732 35.4267 379.771 35.4476C379.81 35.4685 379.845 35.497 379.873 35.5315C379.901 35.5659 379.922 35.6056 379.935 35.6482C379.948 35.6909 379.952 35.7356 379.947 35.7798C379.947 35.9145 378.602 48.9094 378.602 50.7206C378.602 51.0304 378.602 51.394 378.602 51.6969C378.507 53.3802 378.413 55.1241 380.398 55.6224C380.696 55.7336 381.014 55.7792 381.331 55.7559C381.648 55.7327 381.957 55.6412 382.235 55.4877C382.364 55.3766 382.469 55.2406 382.544 55.0879C382.62 54.9352 382.663 54.7689 382.673 54.5989C382.673 54.5096 382.708 54.424 382.771 54.3609C382.834 54.2977 382.92 54.2623 383.009 54.2623C383.098 54.2623 383.184 54.2977 383.247 54.3609C383.31 54.424 383.346 54.5096 383.346 54.5989C383.339 54.8688 383.276 55.1343 383.16 55.378C383.044 55.6217 382.878 55.8381 382.673 56.0129C382.28 56.3002 381.799 56.4429 381.313 56.4169Z" fill="#182546"/>
<path d="M382.424 64.362C379.927 64.362 378.46 61.7697 378.191 61.2513C377.96 60.778 377.924 60.2333 378.088 59.7332C378.253 59.2331 378.606 58.8172 379.073 58.574C379.54 58.3309 380.083 58.2796 380.587 58.4313C381.091 58.5831 381.516 58.9257 381.771 59.3862C381.936 59.6848 382.142 59.959 382.383 60.2009C382.584 59.9505 382.758 59.6797 382.901 59.3929C383.162 58.9438 383.585 58.6123 384.083 58.4671C384.582 58.322 385.117 58.3745 385.577 58.6136C386.038 58.8527 386.389 59.2602 386.557 59.7513C386.725 60.2425 386.698 60.7796 386.481 61.2513C385.411 63.352 384.045 64.362 382.424 64.362Z" fill="white"/>
<path d="M382.336 75.9497C382.336 75.9497 377.39 76.623 374.598 77.8282L382.336 84.5614V75.9497Z" fill="#915A57"/>
<path d="M374.597 77.8282L372.956 81.3227L375.694 78.7776L374.597 77.8282Z" fill="#B1736B"/>
<path d="M350.037 66.0453C352.728 59.9855 356.032 55.2723 356.402 48.5391C356.772 41.806 360.069 24.3874 356.402 26.6969C352.735 29.0063 350.709 34.0562 350.037 32.5412C349.364 31.0263 345.999 18.2401 345.326 16.2201C344.653 14.2002 343.98 12.8536 342.635 12.8536C341.289 12.8536 339.943 13.5269 341.289 18.2401C342.635 22.9533 341.962 22.9533 341.962 22.9533C341.962 22.9533 340.616 23.6266 339.943 20.9333C339.27 18.2401 337.924 10.8336 335.233 12.1803C332.541 13.5269 334.56 16.2201 335.233 18.9134C335.906 21.6066 337.251 26.3198 336.578 26.9931C335.906 27.6664 334.56 26.9191 333.887 22.9533C333.214 18.9874 332.541 15.5468 331.195 15.5468C329.849 15.5468 328.504 16.8934 329.177 20.9333C329.849 24.9732 332.541 31.033 331.195 31.033C329.849 31.033 328.504 24.2999 326.485 24.9732C324.466 25.6465 325.139 27.6664 325.812 29.6864C326.485 31.7063 330.522 43.1526 332.541 45.8459C334.56 48.5391 335.906 51.2324 335.906 53.9256C335.906 56.6189 334.56 62.6787 334.56 62.6787C337.067 64.4627 339.965 65.6173 343.011 66.0453C348.018 66.7186 350.037 66.0453 350.037 66.0453Z" fill="#B1736B"/>
<path d="M211.083 102.067C211.083 102.067 181.811 75.4716 158.933 71.4317C136.054 67.3919 109.811 72.7784 102.409 76.1449C95.0072 79.5115 80.2033 98.3643 80.2033 98.3643L77.5117 113.177L119.904 116.544L175.755 115.87C175.755 115.87 196.615 112.504 196.615 111.831C196.615 111.157 211.083 102.067 211.083 102.067Z" fill="#70E0CB"/>
<path d="M140.428 100.721C140.428 100.721 151.477 82.9319 152.54 81.8681C153.886 80.5215 154.774 79.9222 156.578 80.5215C158.596 81.1948 168.69 82.5414 169.363 75.135L149.95 74.3135C149.95 74.3135 144.465 81.8681 144.465 82.5414C144.465 83.2147 140.428 100.721 140.428 100.721Z" fill="#43AAA5"/>
<path d="M121.923 45.1725C121.923 45.1725 119.904 35.7462 123.269 28.3397C126.633 20.9333 128.652 12.1802 148.166 10.1603C167.68 8.14033 177.619 7.3391 175.674 12.7862C173.73 18.2333 169.699 24.2998 168.353 24.2998C167.008 24.2998 139.419 31.033 139.419 31.033L140.764 49.2124L134.708 57.9655L127.979 49.2124L121.923 45.1725Z" fill="#CE6863"/>
<path d="M169.026 21.6066C170.372 34.3996 173.064 59.9855 172.391 66.0453C171.718 72.1051 169.659 78.8382 162.297 78.8382C154.936 78.8382 153.55 76.145 151.531 77.4916C149.512 78.8382 143.456 99.7109 140.092 101.058C132.219 104.209 124.379 101.906 118.895 95.8461C114.239 90.7087 109.259 81.6527 113.175 74.7983C115.867 70.0851 125.288 55.9456 125.288 55.9456C125.288 55.9456 117.213 49.2125 121.923 42.4793C126.634 35.7462 132.017 44.4993 132.017 47.1925C132.017 49.8858 132.69 53.2523 134.708 50.5591C136.727 47.8658 137.4 46.5192 135.381 39.1128C133.363 31.7063 130.671 22.2799 141.437 19.5867C152.204 16.8934 158.26 20.26 163.307 20.9333C168.353 21.6066 169.026 21.6066 169.026 21.6066Z" fill="#D6B5B2"/>
<path d="M149.768 43.4893H149.761C149.066 43.4893 148.503 44.053 148.503 44.7484V46.6067C148.503 47.3021 149.066 47.8658 149.761 47.8658H149.768C150.463 47.8658 151.026 47.3021 151.026 46.6067V44.7484C151.026 44.053 150.463 43.4893 149.768 43.4893Z" fill="#35528E"/>
<path d="M166.59 43.4893H166.584C165.889 43.4893 165.325 44.053 165.325 44.7484V46.6067C165.325 47.3021 165.889 47.8658 166.584 47.8658H166.59C167.285 47.8658 167.849 47.3021 167.849 46.6067V44.7484C167.849 44.053 167.285 43.4893 166.59 43.4893Z" fill="#35528E"/>
<path d="M145.138 31.3225C144.826 31.3225 144.52 31.2355 144.254 31.0711C143.988 30.9068 143.773 30.6716 143.634 30.392C143.494 30.1124 143.435 29.7994 143.463 29.4881C143.491 29.1767 143.605 28.8793 143.793 28.6292C144.903 27.2195 146.507 26.2854 148.281 26.0168C149.186 25.9371 150.097 26.0474 150.957 26.3407C151.817 26.6341 152.606 27.104 153.274 27.7203C153.604 28.0096 153.809 28.4168 153.843 28.8549C153.878 29.293 153.74 29.7272 153.458 30.0648C153.177 30.4024 152.775 30.6166 152.338 30.6616C151.902 30.7066 151.464 30.5789 151.12 30.3058C150.799 29.9922 150.418 29.7471 149.999 29.5851C149.58 29.4231 149.133 29.3476 148.684 29.3632C147.807 29.5313 147.019 30.0092 146.464 30.7098C146.303 30.905 146.101 31.0615 145.871 31.1676C145.642 31.2736 145.391 31.3266 145.138 31.3225Z" fill="#CE6863"/>
<path d="M162.102 34.9786C161.769 34.9815 161.443 34.8829 161.167 34.6958C160.983 34.5725 160.826 34.4142 160.704 34.23C160.582 34.0459 160.497 33.8394 160.454 33.6225C160.412 33.4055 160.412 33.1823 160.456 32.9656C160.5 32.7488 160.586 32.5429 160.709 32.3594C160.904 32.0631 162.694 29.5113 165.265 29.4103C165.995 29.4013 166.717 29.5714 167.367 29.9059C168.017 30.2404 168.575 30.7291 168.993 31.3292C169.246 31.6795 169.356 32.1141 169.298 32.5429C169.24 32.9717 169.019 33.3617 168.682 33.632C168.344 33.9023 167.915 34.0321 167.485 33.9945C167.054 33.9569 166.654 33.7547 166.368 33.43C166.264 33.2551 166.124 33.1045 165.957 32.9884C165.789 32.8723 165.599 32.7933 165.399 32.7567C164.726 32.7567 163.825 33.7397 163.502 34.2245C163.348 34.4555 163.14 34.6451 162.896 34.7766C162.652 34.9081 162.379 34.9775 162.102 34.9786Z" fill="#CE6863"/>
<path d="M160.279 57.6288C160.189 57.6378 160.1 57.6109 160.031 57.554C159.961 57.4972 159.917 57.4151 159.908 57.3258C159.899 57.2365 159.926 57.1474 159.983 57.0779C160.04 57.0085 160.122 56.9644 160.211 56.9555C160.684 56.9067 161.142 56.7621 161.557 56.5306C161.973 56.2991 162.337 55.9855 162.627 55.6089C163.212 54.673 162.984 53.2994 162.627 51.9461C161.954 49.2528 160.649 34.9988 160.608 34.3928C160.601 34.3038 160.628 34.2153 160.685 34.1462C160.741 34.077 160.822 34.0327 160.911 34.0225C161 34.0149 161.088 34.0423 161.157 34.0989C161.227 34.1554 161.271 34.2367 161.281 34.3255C161.281 34.4736 162.627 49.1384 163.3 51.7845C163.677 53.2792 163.926 54.8211 163.199 55.9658C162.687 56.7737 161.759 57.3124 160.353 57.5817L160.279 57.6288Z" fill="#CE6863"/>
<path d="M158.65 60.6588C156.685 60.6971 154.719 60.5936 152.769 60.349C148.543 59.6353 146.551 58.8947 145.172 56.1274C145.133 56.047 145.127 55.9544 145.156 55.8698C145.185 55.7851 145.246 55.7155 145.327 55.6762C145.407 55.6369 145.5 55.6312 145.584 55.6602C145.669 55.6893 145.738 55.7508 145.778 55.8311C147.009 58.2954 148.711 58.9822 152.883 59.6892C156.786 60.3625 168.219 59.6892 168.36 59.6892C168.449 59.6838 168.537 59.7142 168.604 59.7735C168.671 59.8329 168.711 59.9164 168.717 60.0057C168.722 60.095 168.692 60.1827 168.632 60.2496C168.573 60.3165 168.49 60.3571 168.401 60.3625C168.064 60.3423 163.125 60.6588 158.65 60.6588Z" fill="#CE6863"/>
<path d="M159.606 66.3819H159.532C159.445 66.361 159.37 66.3072 159.322 66.2318C159.274 66.1564 159.258 66.0653 159.276 65.9779C159.373 65.5836 159.553 65.2146 159.805 64.8963C160.057 64.5779 160.375 64.3176 160.736 64.133C161.51 63.8098 162.439 63.9715 163.495 64.6111C163.537 64.632 163.574 64.6613 163.603 64.6972C163.633 64.733 163.655 64.7747 163.668 64.8195C163.681 64.8643 163.684 64.9113 163.678 64.9575C163.671 65.0036 163.656 65.048 163.631 65.0878C163.607 65.1275 163.575 65.1618 163.537 65.1884C163.498 65.215 163.455 65.2334 163.409 65.2424C163.364 65.2514 163.317 65.2508 163.271 65.2406C163.226 65.2305 163.183 65.211 163.145 65.1834C162.846 64.9485 162.496 64.7871 162.123 64.7123C161.75 64.6374 161.365 64.6512 160.999 64.7525C160.738 64.8911 160.509 65.0824 160.326 65.3142C160.143 65.546 160.01 65.8133 159.935 66.0991C159.923 66.1777 159.883 66.2491 159.822 66.3009C159.762 66.3526 159.685 66.3813 159.606 66.3819Z" fill="#CE6863"/>
<path d="M164.316 78.5015C164.257 78.5019 164.198 78.4856 164.148 78.4544C164.109 78.4328 164.076 78.4036 164.049 78.3687C164.022 78.3338 164.002 78.2938 163.99 78.2511C163.979 78.2084 163.977 78.1639 163.983 78.1202C163.989 78.0764 164.004 78.0344 164.027 77.9965C166.665 73.3574 164.269 70.3275 164.161 70.2063C164.107 70.1356 164.081 70.0468 164.09 69.9579C164.099 69.8691 164.141 69.7869 164.208 69.7282C164.277 69.6724 164.365 69.6461 164.454 69.6549C164.542 69.6638 164.623 69.707 164.679 69.7754C164.679 69.809 167.492 73.2699 164.605 78.3332C164.576 78.3841 164.534 78.4264 164.483 78.4559C164.432 78.4854 164.375 78.5012 164.316 78.5015Z" fill="#CE6863"/>
<path d="M96.2118 94.8092C97.6518 88.8301 99.7647 86.4265 104.118 80.0367C108.472 73.647 112.563 66.5704 114.4 59.6757C116.237 52.781 118.868 47.8321 114.225 49.7107C109.582 51.5892 109.73 53.8448 108.795 53.4543C107.86 53.0638 107.045 47.2127 107.16 41.7656C107.274 36.3185 108.694 26.4881 105.505 26.2323C102.315 25.9764 102.207 31.4235 102.618 34.312C103.028 37.2005 102.113 40.6883 101.178 40.2978C100.242 39.9073 99.6974 34.7228 99.9531 31.5447C100.209 28.3667 100.713 21.9837 98.8495 21.1892C96.9856 20.3947 95.1419 23.4649 95.0275 28.912C94.9131 34.3591 95.2024 38.8704 93.6077 38.7424C92.0129 38.6145 93.0559 33.5647 93.3116 30.3799C93.5673 27.1951 93.4058 21.0814 91.1516 21.2228C88.8973 21.3642 87.0603 28.2792 87.0738 32.1305C87.0872 35.9818 87.2353 38.2374 86.2999 37.8402C85.3646 37.4429 85.3579 33.5983 85.4857 32.0026C85.6136 30.4068 84.8128 28.4205 82.7941 29.2218C80.7754 30.023 80.8158 33.8811 81.1119 42.2437C81.408 50.6062 81.6973 55.1309 80.5264 61.7697C79.3556 68.4086 77.3975 76.926 77.3975 76.926L96.2118 94.8092Z" fill="#D6B5B2"/>
<path d="M78.0163 74.3068L98.3649 88.8706L97.1267 114.988L61.6985 111.494L78.0163 74.3068Z" fill="#70E0CB"/>
<path d="M23.0067 68.7385C23.0067 68.7385 2.81962 62.6787 -24.0964 78.1649V110.336H87.6052C87.6052 110.336 86.2594 84.898 51.9414 75.4716L23.0067 68.7385Z" fill="#2090D6"/>
<path d="M52.2778 89.2745L66.0723 81.1005C66.0723 81.1005 59.2693 77.6936 56.0932 76.7509L52.2778 89.2745Z" fill="#1167A8"/>
<path d="M27.7169 59.3121C27.3267 59.6016 24.9109 58.0867 24.5207 57.8241C23.6695 57.2641 22.9377 56.541 22.3674 55.6964C21.8355 54.8163 21.5024 53.8305 21.3917 52.8079C21.1427 51.5219 20.1132 51.9393 18.949 51.7845C17.9587 51.6605 16.9884 51.4093 16.0623 51.0371C14.9745 50.6399 14.045 49.8999 13.414 48.9284C12.7829 47.9569 12.4843 46.8066 12.5632 45.6506C12.9131 39.0858 12.5632 16.9069 12.5632 16.9001C12.6518 16.5573 12.7974 16.2318 12.9939 15.9373C14.1748 13.3 15.9617 10.9792 18.2088 9.16378C19.5983 8.06504 21.2671 7.37703 23.0268 7.1775C24.0189 7.08712 25.019 7.15991 25.9876 7.39296C26.3711 7.48723 27.2123 7.972 27.5554 7.89121C28.0938 7.75654 28.3629 6.9553 28.6725 6.54458C29.2327 5.84687 29.8872 5.23048 30.6171 4.71315C31.6677 4.01339 32.8778 3.59034 34.1352 3.48324C35.3927 3.37613 36.6568 3.58844 37.8105 4.10045C38.0682 4.29025 38.3628 4.42401 38.6753 4.49312C38.9877 4.56224 39.3112 4.56516 39.6249 4.50175C39.9386 4.43834 40.2355 4.31002 40.4967 4.12495C40.7578 3.93988 40.9774 3.70217 41.1413 3.42714C42.5208 1.4072 45.2124 -1.28605 50.5956 0.733889C55.9788 2.75383 55.3059 2.08051 56.6517 1.4072C57.9975 0.733889 59.3433 0.0605757 61.362 2.75383C63.3807 5.44708 66.0723 2.08051 68.7639 5.44708C71.4555 8.81364 70.7826 10.8336 70.1097 12.1802C69.4368 13.5268 69.2955 14.8735 70.7086 16.5567C72.1217 18.24 76.1658 24.2998 66.7452 30.3597L27.7169 59.3121Z" fill="#7C4542"/>
<path d="M67.4182 22.2799C70.5001 37.6921 76.8388 62.0054 69.4369 67.3919C62.035 72.7784 57.9976 70.7584 57.3247 72.7784C56.0932 76.4681 55.2387 80.2925 54.0611 84.0025C53.1796 86.7833 52.9441 90.0219 50.8446 92.2438C49.2162 93.9608 46.8072 94.4658 44.5261 94.4052C41.204 94.3429 37.9318 93.5845 34.9207 92.1789C31.9096 90.7733 29.2263 88.7518 27.0441 86.2446C18.9693 76.8183 20.3151 68.7385 21.6609 66.0453C23.0067 63.352 28.3899 51.2324 28.3899 51.2324C28.3899 51.2324 23.0067 45.1726 28.3899 40.4594C33.7731 35.7462 35.3006 45.6775 35.3006 45.6775C35.3006 45.6775 39.1563 41.806 39.1563 39.7861C39.1563 37.7661 37.1376 32.3796 41.8479 31.033C46.5582 29.6864 55.9789 27.6664 59.3434 22.9532C62.7079 18.24 66.7453 18.9134 67.4182 22.2799Z" fill="#FFDFE3"/>
<path d="M45.8854 37.416C45.5545 37.4153 45.231 37.3169 44.9557 37.1332C44.6803 36.9494 44.4652 36.6885 44.3374 36.383C44.2095 36.0775 44.1746 35.7411 44.2369 35.4158C44.2992 35.0906 44.456 34.7909 44.6877 34.5544C44.829 34.413 48.2541 31.0869 53.9401 33.5243C54.3505 33.7028 54.6733 34.0372 54.8373 34.4539C55.0014 34.8706 54.9933 35.3355 54.8148 35.7462C54.6364 36.1569 54.3022 36.4799 53.8857 36.644C53.4693 36.8082 53.0047 36.8001 52.5943 36.6215C49.0615 35.1065 47.1034 36.8773 47.0226 36.9581C46.7125 37.2451 46.3078 37.4081 45.8854 37.416Z" fill="#7C4542"/>
<path d="M67.2567 32.7162C67.0123 32.7168 66.7707 32.6641 66.5488 32.5618C66.3268 32.4595 66.1298 32.31 65.9714 32.1237C65.6821 31.7803 65.1303 31.2215 64.6256 31.2215C64.1385 31.3252 63.7084 31.6089 63.4211 32.016C63.1624 32.3803 62.7696 32.6268 62.3291 32.7013C61.8887 32.7758 61.4368 32.6722 61.0727 32.4132C60.7086 32.1543 60.4623 31.7613 60.3878 31.3206C60.3134 30.8799 60.4169 30.4277 60.6757 30.0634C61.1151 29.4481 61.68 28.9331 62.3331 28.5524C62.9861 28.1717 63.7125 27.934 64.4641 27.8549C65.4869 27.8145 67.0212 28.1377 68.5554 29.9422C68.7634 30.1868 68.8971 30.4858 68.9407 30.804C68.9844 31.1222 68.9361 31.4462 68.8017 31.7379C68.6673 32.0295 68.4523 32.2766 68.1821 32.45C67.9119 32.6233 67.5978 32.7157 67.2769 32.7162H67.2567Z" fill="#7C4542"/>
<path d="M51.5243 40.796H51.5176C50.8226 40.796 50.2593 41.3597 50.2593 42.0551V43.9135C50.2593 44.6088 50.8226 45.1726 51.5176 45.1726H51.5243C52.2193 45.1726 52.7827 44.6088 52.7827 43.9135V42.0551C52.7827 41.3597 52.2193 40.796 51.5243 40.796Z" fill="#35528E"/>
<path d="M66.328 40.1227H66.3213C65.6264 40.1227 65.063 40.6864 65.063 41.3818V43.2401C65.063 43.9355 65.6264 44.4992 66.3213 44.4992H66.328C67.023 44.4992 67.5864 43.9355 67.5864 43.2401V41.3818C67.5864 40.6864 67.023 40.1227 66.328 40.1227Z" fill="#35528E"/>
<path d="M61.3621 53.589C61.2729 53.5961 61.1845 53.5675 61.1163 53.5094C61.0482 53.4513 61.0059 53.3685 60.9988 53.2792C60.9916 53.1899 61.0202 53.1015 61.0783 53.0333C61.1363 52.9651 61.2191 52.9228 61.3083 52.9156C61.6826 52.8903 62.0463 52.7809 62.3725 52.5955C62.6987 52.4102 62.9789 52.1537 63.1924 51.8451C63.8653 50.687 63.1924 48.768 62.6541 47.3743C62.5599 47.0982 62.4657 46.8491 62.3917 46.6202C61.7188 44.6002 60.373 33.531 60.3057 33.0597C60.3 33.0154 60.3033 32.9705 60.3151 32.9274C60.327 32.8844 60.3473 32.8442 60.3749 32.8091C60.4024 32.774 60.4367 32.7448 60.4756 32.7231C60.5146 32.7014 60.5574 32.6876 60.6018 32.6826C60.6456 32.677 60.6902 32.6803 60.7327 32.6922C60.7753 32.7042 60.815 32.7246 60.8496 32.7522C60.8841 32.7799 60.9127 32.8142 60.9337 32.8531C60.9547 32.892 60.9677 32.9348 60.9718 32.9789C60.9718 33.0933 62.3715 44.4252 63.0242 46.4047C63.0982 46.6269 63.1924 46.876 63.2866 47.1386C63.8451 48.6603 64.6324 50.7476 63.7778 52.1884C63.5136 52.5823 63.164 52.9116 62.7551 53.1517C62.3462 53.3918 61.8885 53.5366 61.416 53.5755L61.3621 53.589Z" fill="#CE6863"/>
<path d="M58.8926 57.6625C57.9909 57.683 57.0895 57.6154 56.201 57.4605C54.2832 57.0296 54.0948 56.8882 53.2133 55.8648C53.0316 55.6628 52.823 55.4137 52.5404 55.1242C52.4783 55.0601 52.4436 54.9743 52.4436 54.8851C52.4436 54.7959 52.4783 54.7101 52.5404 54.6461C52.5717 54.6145 52.6089 54.5895 52.6499 54.5724C52.6909 54.5553 52.7348 54.5465 52.7793 54.5465C52.8237 54.5465 52.8677 54.5553 52.9087 54.5724C52.9497 54.5895 52.9869 54.6145 53.0182 54.6461C53.294 54.9423 53.5094 55.1915 53.6911 55.4002C54.4783 56.3159 54.5456 56.39 56.3154 56.7468C58.5359 57.2383 64.5315 56.6054 64.5921 56.5987C64.6821 56.5892 64.7722 56.6158 64.8428 56.6725C64.9134 56.7293 64.9587 56.8116 64.9689 56.9017C64.9735 56.9456 64.9693 56.9899 64.9565 57.0321C64.9437 57.0744 64.9225 57.1136 64.8943 57.1475C64.866 57.1814 64.8313 57.2093 64.7921 57.2295C64.7529 57.2498 64.71 57.2619 64.6661 57.2653C64.5046 57.3393 61.4698 57.6625 58.8926 57.6625Z" fill="#CE6863"/>
<path d="M-6.60106 66.0453C-3.23655 61.3321 -0.544949 59.9855 5.51116 55.9456C11.5673 51.9057 17.6234 47.1925 21.6608 41.806C25.6982 36.4195 29.7356 33.053 25.0253 33.053C20.315 33.053 19.6421 35.0729 18.9692 34.3996C18.2963 33.7263 19.6421 28.3398 21.6608 23.6266C23.6795 18.9134 28.3898 10.8336 25.6982 9.48701C23.0066 8.14038 20.9879 12.8536 20.315 15.5468C19.6421 18.2401 17.6234 20.9333 16.9505 20.26C16.2776 19.5867 17.6234 14.8735 18.9692 12.1803C20.315 9.48701 23.0066 4.10051 21.6608 2.75388C20.315 1.40726 17.6234 3.42719 15.6047 8.14038C13.586 12.8536 12.2402 16.8934 10.8944 16.2201C9.54857 15.5468 12.2402 11.5069 13.586 8.8137C14.9318 6.12045 16.9505 0.733943 14.9318 0.0606298C12.9131 -0.612683 8.87567 4.77382 7.52987 8.14038C6.18406 11.5069 5.51116 13.5269 4.83826 12.8536C4.16536 12.1803 5.51116 8.8137 6.18406 7.46707C6.85697 6.12045 6.85697 4.10051 4.83826 4.10051C2.81956 4.10051 1.47376 7.46707 -1.21785 14.8735C-3.90945 22.28 -5.25526 26.3198 -8.61976 31.7063C-11.9843 37.0928 -16.6946 43.826 -16.6946 43.826L-6.60106 66.0453Z" fill="#FFDFE3"/>
<path d="M-12.9935 36.7562L0.464523 59.6488L-3.70074 69.7014L-20.5367 110.329H-36V70.7585L-12.9935 36.7562Z" fill="#2090D6"/>
<path d="M231.108 30.3597C228.479 29.0804 227.165 27.7989 227.165 26.5151C227.165 25.2358 218.619 20.7448 209.421 23.3101C200.222 25.8755 195.619 32.2854 192.329 38.6953C189.038 45.1053 187.733 48.3102 184.442 52.1616C181.152 56.0129 177.875 60.4972 179.847 64.9545C181.818 69.4118 183.157 71.4318 181.811 75.2427C180.466 79.0537 173.925 82.9387 181.139 91.2676L190.997 101.529L208.082 104.734L238.335 99.6032L248.193 86.8103C248.193 86.8103 254.108 79.7606 250.165 75.916C246.222 72.0714 242.278 71.425 244.25 65.6547C246.222 59.8845 249.505 54.1209 245.562 50.916C241.619 47.711 239.681 45.1187 238.335 39.9881C236.989 34.8574 232.42 31.033 231.108 30.3597Z" fill="#35528E"/>
<path d="M153.886 110.821C153.886 110.821 174.578 88.278 195.606 87.5306C216.634 86.7833 230.449 84.2247 230.449 84.2247C230.449 84.2247 242.783 74.4886 246.8 71.9839C250.817 69.4792 268.562 63.0759 280.391 64.9949V110.242H158.812L153.886 110.821Z" fill="#3072ED"/>
<path d="M206.13 79.7337V86.8304C206.13 86.8304 194.96 87.4229 190.357 88.0626C190.357 88.0626 195.619 103.448 207.449 101.529C219.279 99.6099 235.159 96.5665 237.407 90.7154C239.654 84.8643 242.931 74.603 243.59 73.9634C243.59 73.9634 231.108 81.6526 226.506 83.5783C226.506 83.5783 224.534 81.6526 225.833 80.3733C227.131 79.094 231.095 77.808 233.066 74.603C235.038 71.3981 235.691 66.2742 235.691 63.7088C235.691 63.7088 239.634 61.7831 239.634 58.5782C239.634 55.3732 234.378 54.7336 234.378 54.7336C234.378 54.7336 234.378 38.0691 225.18 31.6591C215.981 25.2492 201.521 34.2245 201.521 34.2245L194.287 47.0174L196.259 54.7066C196.259 54.7066 191.003 54.4171 190.344 58.4098C189.684 62.4026 194.946 63.0422 194.946 63.0422C194.946 63.0422 194.96 75.2427 206.13 79.7337Z" fill="#BF907C"/>
<path d="M207.61 56.2822C207.61 55.6017 207.059 55.05 206.379 55.05C205.699 55.05 205.147 55.6017 205.147 56.2822V57.9857C205.147 58.6662 205.699 59.2179 206.379 59.2179C207.059 59.2179 207.61 58.6662 207.61 57.9857V56.2822Z" fill="#172444"/>
<path d="M227.327 56.2822C227.327 55.6017 226.775 55.05 226.095 55.05C225.415 55.05 224.864 55.6017 224.864 56.2822V57.9857C224.864 58.6662 225.415 59.2179 226.095 59.2179C226.775 59.2179 227.327 58.6662 227.327 57.9857V56.2822Z" fill="#172444"/>
<path d="M234.392 48.3237C234.392 48.3237 233.719 48.3237 230.449 47.0444C229.645 44.3644 228.543 41.7829 227.165 39.3484C227.165 39.3484 225.819 45.1187 222.562 46.398C219.305 47.6773 208.761 48.9633 208.761 48.9633C208.761 48.9633 208.088 41.9137 209.434 39.988C209.434 39.988 205.558 45.1187 204.865 48.9633C204.865 48.9633 201.548 48.9633 200.229 49.6366C198.91 50.3099 198.271 55.4204 195.639 54.774L192.342 48.997L193.015 41.3078L198.271 33.6118L207.476 29.1275L216.977 27.4577L223.249 28.4878L230.476 34.8978L233.84 41.1462L234.392 48.3237Z" fill="#35528E"/>
<path d="M229.137 50.889C228.961 50.89 228.792 50.8224 228.666 50.7005C226.445 48.5324 223.673 50.0878 223.558 50.1551C223.408 50.2411 223.231 50.2659 223.063 50.2245C222.895 50.1832 222.75 50.0787 222.657 49.9329C222.612 49.8613 222.582 49.7814 222.569 49.6981C222.556 49.6147 222.561 49.5297 222.581 49.4479C222.602 49.3662 222.639 49.2895 222.69 49.2224C222.741 49.1553 222.805 49.0993 222.879 49.0576C224.171 48.3035 227.232 47.4887 229.608 49.7915C229.668 49.8505 229.717 49.9211 229.75 49.9992C229.783 50.0773 229.8 50.1612 229.8 50.246C229.8 50.3307 229.783 50.4147 229.75 50.4927C229.717 50.5708 229.668 50.6415 229.608 50.7005C229.481 50.8224 229.312 50.89 229.137 50.889Z" fill="#35528E"/>
<path d="M203.513 50.8823C203.417 50.8821 203.323 50.8617 203.236 50.8222C203.149 50.7828 203.071 50.7252 203.008 50.6534C202.952 50.5902 202.91 50.5164 202.884 50.4365C202.858 50.3565 202.848 50.272 202.856 50.1882C202.864 50.1044 202.888 50.0231 202.928 49.9491C202.968 49.8751 203.023 49.81 203.089 49.7578C203.203 49.6636 205.841 47.5696 210.491 48.9701C210.573 48.9924 210.65 49.0312 210.717 49.084C210.784 49.1368 210.839 49.2026 210.88 49.2774C210.921 49.3523 210.946 49.4346 210.954 49.5194C210.963 49.6043 210.954 49.69 210.928 49.7713C210.871 49.9335 210.755 50.0678 210.602 50.1466C210.449 50.2255 210.272 50.243 210.107 50.1955C206.164 49.0105 204.011 50.6736 203.923 50.7409C203.806 50.8321 203.661 50.8818 203.513 50.8823Z" fill="#35528E"/>
<path d="M216.964 61.7562L216.93 61.0829C217.023 61.0816 217.114 61.0584 217.196 61.0151C217.277 60.9718 217.348 60.9096 217.401 60.8338C217.542 60.6385 217.717 60.1605 217.32 58.9687C216.875 57.2811 216.649 55.5431 216.647 53.7977H217.32C217.338 55.4777 217.564 57.1491 217.993 58.7735C218.363 59.8575 218.363 60.6789 217.993 61.2041C217.881 61.3742 217.728 61.5137 217.548 61.6101C217.368 61.7065 217.168 61.7567 216.964 61.7562Z" fill="#172444"/>
<path d="M220.167 64.6986C217.334 64.1936 216.762 66.2001 216.762 66.2001C216.762 66.2001 216.197 64.1802 213.364 64.6986C210.531 65.2171 206.009 66.7185 206.002 67.7083C205.996 68.6981 209.899 74.7243 216.695 74.7243C223.491 74.7243 227.529 68.7115 227.522 67.7083C227.515 66.7051 222.966 65.1632 220.167 64.6986Z" fill="#182546"/>
<path d="M259.969 47.684C254.108 44.4791 240.307 36.1434 236.363 34.2178C232.42 32.2921 226.505 29.7268 227.165 26.5218C227.824 23.3168 233.746 26.5218 235.058 26.5218C236.37 26.5218 235.731 25.8822 233.712 23.9565L222.542 13.0623C221.23 11.783 221.869 10.773 222.542 10.3152C223.215 9.85731 224.514 9.85733 225.826 11.1366C227.138 12.4159 230.429 16.2673 231.088 15.6276C231.747 14.988 231.532 13.9712 229.668 11.9109C227.804 9.85057 223.854 6.0127 225.173 4.72668C226.492 3.44065 229.116 5.39998 230.428 6.65234C231.741 7.9047 235.812 12.7122 236.417 11.9109C237.023 11.1097 233.726 7.93167 231.741 6.01273C229.756 4.09378 229.116 2.16808 230.395 1.5217C231.673 0.87532 233.679 2.80775 236.969 5.37307C240.26 7.93839 241.565 10.497 242.224 9.21766C242.884 7.93837 241.552 6.0127 240.253 4.72668C238.954 3.44065 239.445 2.20848 240.832 2.82793C242.218 3.44738 244.869 6.65235 248.792 10.497C252.715 14.3416 259.969 20.1119 261.94 25.2425C263.485 28.9851 265.265 32.6261 267.27 36.1435L259.969 47.684Z" fill="#BF907C"/>
<path d="M265.191 32.2853L257.587 46.3509L279.187 110.235H300.659C300.659 110.235 303.398 76.5287 290.909 60.5039C283.034 50.4842 274.438 41.0529 265.191 32.2853Z" fill="#3072ED"/>
<path d="M225.234 67.4323H208.229C208.229 67.4323 207.032 67.4861 208.425 68.4961C209.817 69.5061 213.014 71.8626 216.728 71.7213C220.449 71.8559 223.639 69.5061 225.032 68.4961C226.425 67.4861 225.234 67.4323 225.234 67.4323Z" fill="white"/>
<path d="M206.13 86.8304V91.8736L201.251 87.12L206.13 86.8304Z" fill="#A56C58"/>
<path d="M282.525 72.1051C282.525 72.1051 269.962 82.2048 268.616 93.6511L293.002 103.077L318.41 100.384L335.233 92.3045C335.233 92.3045 325.812 74.7983 318.41 70.0851L282.525 72.1051Z" fill="#607EB2"/>
<path d="M310.524 87.9414L310.867 81.3362C310.867 81.3362 318.747 79.1748 319.42 72.4417L308.653 79.1748L307.98 87.9279L310.524 87.9414Z" fill="#406191"/>
<path d="M249.774 111.157C249.774 111.157 259.074 89.1735 289.415 88.0424L310.457 87.5912C310.457 87.5912 333.887 87.5912 354.747 107.791L355.043 111.157H249.774Z" fill="#70E0CB"/>
<path d="M320.591 111.157H355.043L354.747 107.791C345.056 98.3041 332.901 91.726 319.662 88.8032L320.591 111.157Z" fill="#3244EA"/>
<path d="M283.144 111.157H249.774C249.774 111.157 257.742 92.3045 282.996 88.6215L283.144 111.157Z" fill="#3244EA"/>
<path d="M278.037 62.0054C278.037 62.0054 272.653 46.5192 278.709 37.0928C284.766 27.6665 294.186 21.6066 308.317 24.9732C322.448 28.3398 327.602 43.1526 324.016 62.0054L314.737 69.7485L288.803 68.0652L278.037 62.0054Z" fill="#607EB2"/>
<path d="M280.728 68.0652C280.728 68.0652 284.765 77.4916 293.513 80.1848V87.8135L286.784 88.2646C286.784 88.2646 285.438 97.691 300.242 97.691C315.046 97.691 314.709 87.9279 314.709 87.9279L308.653 87.2546L308.99 80.1848C308.99 80.1848 320.429 78.1649 320.429 67.3919C320.429 67.3919 325.139 68.0652 325.139 63.352C325.139 58.6388 319.756 59.3121 319.756 59.3121V52.579C319.756 52.579 301.184 36.4195 295.666 36.4195C290.149 36.4195 284.092 39.1127 283.419 45.8459C282.747 52.579 282.074 59.9854 282.074 59.9854C282.074 59.9854 276.018 58.6388 276.018 63.352C276.018 68.0652 280.728 68.0652 280.728 68.0652Z" fill="#FFDFE3"/>
<path d="M317.401 101.058L314.622 89.9613C314.036 87.5913 314.709 85.1539 317.401 87.0459C320.093 88.9379 320.584 91.5032 322.353 89.8805C324.123 88.2579 322.434 83.6928 322.441 79.7808C322.448 75.8689 321.768 71.122 323.787 71.122C325.805 71.122 326.478 75.8352 326.478 79.8751C326.478 83.915 327.151 83.511 327.824 83.3763C328.497 83.2416 328.497 77.8551 328.497 75.1619C328.497 72.4686 328.948 70.4487 331.081 70.0919C333.214 69.735 332.541 74.4617 332.541 77.1549C332.541 79.8482 332.272 86.5813 333.08 86.5813C333.887 86.5813 333.887 81.1948 334.56 77.8282C335.233 74.4617 335.233 73.115 337.252 73.115C339.27 73.115 337.924 83.888 337.924 85.5578C337.924 87.2277 338.597 89.2745 339.27 87.2546C339.943 85.2347 339.943 81.1948 341.962 81.1948C343.981 81.1948 344.653 90.6212 340.616 102.741C339.728 104.882 338.599 106.915 337.252 108.801C335.233 111.494 335.233 113.514 335.233 113.514H321.31C321.31 113.514 318.41 106.107 317.401 101.058Z" fill="#FFDFE3"/>
<path d="M319.682 109.016L335.697 111.548L339.271 127.653L319.083 129L319.682 109.016Z" fill="#3244EA"/>
<path d="M291.077 54.2623H291.07C290.375 54.2623 289.812 54.826 289.812 55.5214V57.3797C289.812 58.0751 290.375 58.6388 291.07 58.6388H291.077C291.772 58.6388 292.335 58.0751 292.335 57.3797V55.5214C292.335 54.826 291.772 54.2623 291.077 54.2623Z" fill="#182546"/>
<path d="M311.937 54.2623H311.93C311.235 54.2623 310.672 54.826 310.672 55.5214V57.3797C310.672 58.0751 311.235 58.6388 311.93 58.6388H311.937C312.632 58.6388 313.195 58.0751 313.195 57.3797V55.5214C313.195 54.826 312.632 54.2623 311.937 54.2623Z" fill="#182546"/>
<path d="M314.669 67.0552H289.348C289.348 67.0552 287.565 67.1495 289.644 68.8866C291.723 70.6238 296.474 74.6637 302.012 74.4213C307.55 74.6637 312.3 70.6238 314.373 68.8866C316.446 67.1495 314.669 67.0552 314.669 67.0552Z" fill="white"/>
<path d="M294.859 35.0729C294.859 35.0729 296.878 48.5391 305.625 51.9057C310.762 53.9191 316.263 54.8365 321.775 54.5989L320.321 46.8895L310.336 37.7661L301.426 35.0729H294.859Z" fill="#607EB2"/>
<path d="M287.006 47.5628C286.85 47.565 286.697 47.5126 286.575 47.4147C286.507 47.3581 286.451 47.2887 286.41 47.2104C286.368 47.132 286.343 47.0463 286.335 46.9581C286.327 46.8699 286.336 46.781 286.362 46.6964C286.389 46.6119 286.431 46.5333 286.488 46.4653C286.596 46.3306 289.274 43.1593 294.98 44.2029C295.158 44.2351 295.317 44.3369 295.42 44.4859C295.524 44.6349 295.564 44.8189 295.532 44.9975C295.5 45.176 295.398 45.3345 295.249 45.4381C295.1 45.5416 294.916 45.5817 294.738 45.5496C289.805 44.6541 287.551 47.3204 287.524 47.3473C287.458 47.4184 287.378 47.4745 287.289 47.5116C287.199 47.5488 287.103 47.5663 287.006 47.5628Z" fill="#607EB2"/>
<path d="M303.27 62.6787C302.362 62.6787 300.242 62.3488 300.242 59.3121V50.8957C300.242 50.8065 300.278 50.7208 300.341 50.6577C300.404 50.5945 300.489 50.5591 300.579 50.5591C300.668 50.5591 300.753 50.5945 300.817 50.6577C300.88 50.7208 300.915 50.8065 300.915 50.8957V59.3121C300.915 61.5408 302.194 62.0054 303.27 62.0054C303.359 62.0054 303.445 62.0409 303.508 62.104C303.571 62.1671 303.607 62.2528 303.607 62.3421C303.607 62.4313 303.571 62.517 303.508 62.5801C303.445 62.6433 303.359 62.6787 303.27 62.6787Z" fill="#B1736B"/>
<path d="M293.513 87.8135L293.177 90.6212L286.784 88.1972C289.012 87.8763 291.263 87.7479 293.513 87.8135Z" fill="#E5AEB1"/>
</g>
<defs>
<clipPath id="clip0_538_272">
<rect width="490" height="129" fill="white" transform="translate(-36)"/>
</clipPath>
</defs>
</svg>
