<svg width="20" height="19" viewBox="0 0 20 19" fill="none" xmlns="http://www.w3.org/2000/svg">
<path d="M3.25 15C1.45507 15 0 13.5449 0 11.75V3.25C0 1.45507 1.45507 0 3.25 0H16.75C18.5449 0 20 1.45507 20 3.25V11.75C20 13.5449 18.5449 15 16.75 15H11.0125L5.99868 18.7507C5.44585 19.1642 4.6625 19.0512 4.24901 18.4984C4.08736 18.2822 4 18.0196 4 17.7499L3.99921 15H3.25ZM10.5135 13.5H16.75C17.7165 13.5 18.5 12.7165 18.5 11.75V3.25C18.5 2.2835 17.7165 1.5 16.75 1.5H3.25C2.2835 1.5 1.5 2.2835 1.5 3.25V11.75C1.5 12.7165 2.2835 13.5 3.25 13.5H5.49879L5.49986 17.2506L10.5135 13.5Z" fill="#0C3D81"/>
<path d="M11 7C11 7.55228 10.5523 8 10 8C9.44771 8 9 7.55228 9 7C9 6.44772 9.44771 6 10 6C10.5523 6 11 6.44772 11 7Z" fill="#0C3D81"/>
<path d="M7 7C7 7.55228 6.55228 8 6 8C5.44772 8 5 7.55228 5 7C5 6.44772 5.44772 6 6 6C6.55228 6 7 6.44772 7 7Z" fill="#0C3D81"/>
<path d="M15 7C15 7.55228 14.5523 8 14 8C13.4477 8 13 7.55228 13 7C13 6.44772 13.4477 6 14 6C14.5523 6 15 6.44772 15 7Z" fill="#0C3D81"/>
</svg>
