<svg width="28" height="28" viewBox="0 0 28 28" fill="none" xmlns="http://www.w3.org/2000/svg">
<path d="M22.1105 3.5559C20.48 1.92546 17.8366 1.92554 16.2063 3.55607L2.26453 17.4994C1.79048 17.9736 1.45728 18.5698 1.302 19.2221L0.0238103 24.5904C-0.046563 24.8861 0.0414387 25.197 0.256292 25.4119C0.471157 25.6267 0.782097 25.7147 1.07768 25.6443L6.44581 24.3662C7.09821 24.2108 7.6947 23.8775 8.16889 23.4032L22.1107 9.45984C23.7408 7.82943 23.7409 5.18621 22.1105 3.5559ZM17.4438 4.79344C18.3906 3.84639 19.9261 3.84634 20.8731 4.79334C21.8199 5.74026 21.82 7.2755 20.8732 8.22247L19.8333 9.26249L16.404 5.83327L17.4438 4.79344ZM15.1667 7.07078L18.596 10.5L6.93139 22.1659C6.68621 22.4111 6.37779 22.5834 6.04047 22.6638L2.05556 23.6125L3.00441 19.6274C3.08469 19.2903 3.25696 18.9819 3.50204 18.7368L15.1667 7.07078Z" fill="white"/>
</svg>
