<svg width="30" height="30" viewBox="0 0 30 30" fill="none" xmlns="http://www.w3.org/2000/svg">
<g clip-path="url(#clip0_711_573)">
<path d="M28.7933 13.0174L2.96331 0.2107C2.58021 0.0146834 2.14664 -0.0502614 1.7254 0.0252778C1.30417 0.100817 0.917154 0.312915 0.620476 0.630834C0.324994 0.935094 0.131095 1.32868 0.0669231 1.75447C0.0027514 2.18026 0.0716469 2.61609 0.263609 2.99869C0.33409 3.14242 0.405476 3.28524 0.476849 3.42897C0.779294 4.0389 1.06567 4.61474 1.31905 5.21914C2.43069 7.87263 3.10338 10.563 3.32196 13.2035C3.33719 13.388 3.41908 13.5597 3.55132 13.6847C3.68355 13.8096 3.85646 13.8786 4.03569 13.878H18.9135C19.195 13.8863 19.4623 14.0077 19.6585 14.2163C19.8548 14.4249 19.9646 14.7043 19.9646 14.9951C19.9646 15.2859 19.8548 15.5653 19.6585 15.7739C19.4623 15.9825 19.195 16.1039 18.9135 16.1122H4.03036C3.85098 16.1116 3.67793 16.1807 3.54568 16.3059C3.41342 16.431 3.33165 16.603 3.31662 16.7876C3.11182 19.1172 2.59384 21.406 1.77764 23.588C1.44489 24.4996 1.06395 25.3915 0.636551 26.26C0.581236 26.3714 0.520569 26.4838 0.458117 26.6027C0.376038 26.7547 0.291282 26.9123 0.212771 27.079C-0.164615 27.8732 -0.0334814 28.7476 0.554457 29.3603C0.749435 29.5627 0.981368 29.7232 1.2368 29.8325C1.49224 29.9418 1.76612 29.9977 2.04261 29.9969C2.36105 29.9969 2.6754 29.9229 2.96241 29.7804L28.7924 16.9737C29.1539 16.7945 29.4589 16.5134 29.6724 16.163C29.886 15.8125 29.9992 15.4069 29.9992 14.9928C29.9992 14.5787 29.886 14.1731 29.6724 13.8226C29.4589 13.4722 29.1539 13.1911 28.7924 13.0119L28.7933 13.0174Z" fill="#888888"/>
</g>
<defs>
<clipPath id="clip0_711_573">
<rect width="30" height="30" fill="white"/>
</clipPath>
</defs>
</svg>
